<?xml version="1.0" encoding="utf-8"?>
<!-- Generator: Adobe Illustrator 22.0.1, SVG Export Plug-In . SVG Version: 6.00 Build 0)  -->
<svg version="1.1" id="Layer_1" xmlns="http://www.w3.org/2000/svg" xmlns:xlink="http://www.w3.org/1999/xlink" x="0px" y="0px"
	 viewBox="0 0 125 25" style="enable-background:new 0 0 125 25;" xml:space="preserve">
<style type="text/css">
	.st0{fill:#01519F;}
	.st1{fill:#2A1000;}
</style>
<g>
	<path class="st0" d="M18.2566452,1H6.7504706C3.5735712,1,1,3.5735712,1,6.7494354v11.5082684
		c0,3.1748104,2.5735712,5.7494049,5.7504706,5.7494049h11.5061741c3.1748028,0,5.7504673-2.5745945,5.7504673-5.7494049V6.7494354
		C24.0071125,3.5735712,21.431448,1,18.2566452,1 M6.7504706,6.7494354h11.5061741v11.5082684H6.7504706V6.7494354z"/>
	<path class="st0" d="M12.4658508,7.7455435c-2.607091,0-4.7197843,2.1137476-4.7197843,4.7197962
		c0,2.6071024,2.1126933,4.7197952,4.7197843,4.7197952c2.60604,0,4.7176857-2.1126928,4.7176857-4.7197952
		C17.1835365,9.8592911,15.0718908,7.7455435,12.4658508,7.7455435"/>
	<polygon class="st1" points="36.518837,1.0232708 47.725441,17.3121033 47.725441,4.7794361 47.691925,1.8004791 
		44.3243866,1.8004791 44.3243866,1.0232708 51.5465202,1.0232708 51.5465202,1.8004791 48.7603149,1.8004791 48.7278442,4.7794361 
		48.7278442,24.1770363 48.2104034,24.3414993 33.1837692,2.4802885 33.1837692,20.0333538 33.2162361,23.1086559 
		36.6811905,23.1086559 36.6811905,23.8868866 29.2003403,23.8868866 29.2003403,23.1086559 32.1803169,23.1086559 
		32.2117386,20.0333538 32.2117386,4.7794361 32.1803169,1.8004791 29.2003403,1.8004791 29.2003403,1.0232708 	"/>
	<path class="st1" d="M73.8914337,1.0232708v7.3174696h-0.9720306c-0.0953217-1.1322803-0.2241592-2.5578761-1.230751-4.2411132
		c-1.1637115-1.9754658-2.7516327-2.0728965-4.3050003-2.1378183h-1.8152161L65.535965,4.8768349v14.9292126l0.0324707,3.3026085
		h3.4984665v0.7782307H58.4447708v-0.7782307h3.4963646l0.0335159-3.3026085V4.8768349l-0.0335159-2.9150262h-1.4884148
		c-1.8791122,0.0324448-3.3036385,0.0324448-4.6642723,2.2027721c-1.0683899,1.715714-1.1658058,3.076324-1.2317886,4.1761594
		H53.618145V1.0232708H73.8914337"/>
	<polygon class="st1" points="83.0892563,1.0232708 94.2958527,17.3121033 94.2958527,4.7794361 94.2623367,1.8004791 
		90.8937531,1.8004791 90.8937531,1.0232708 98.1169281,1.0232708 98.1169281,1.8004791 95.3307266,1.8004791 95.2982635,4.7794361 
		95.2982635,24.1770363 94.7808228,24.3414993 79.7541809,2.4802885 79.7541809,20.0333538 79.7856064,23.1086559 
		83.2505569,23.1086559 83.2505569,23.8868866 75.770752,23.8868866 75.770752,23.1086559 78.7507324,23.1086559 
		78.7821579,20.0333538 78.7821579,4.7794361 78.7507324,1.8004791 75.770752,1.8004791 75.770752,1.0232708 	"/>
	<path class="st1" d="M110.6901398,1.0232708v0.7772082h-3.2051926l-0.0324631,2.7516508v12.3713684
		c0.0324631,3.2051773,0.0974197,6.2500782,6.1212616,6.2500782c6.0877457,0,6.4763489-2.6552734,6.573761-5.5378227V4.5521297
		l-0.0324783-2.7516508h-3.2711487V1.0232708H124v0.7772082h-2.814476l-0.0335159,2.7516508v11.78899
		c-0.0345764,4.242136-0.0659943,7.8683929-8.4539261,7.8683929c-1.1961746,0-4.0473175-0.1277962-5.8614883-0.8735828
		c-2.8815231-1.2307339-2.9464645-3.756134-2.9789429-6.8649349V4.5521297l-0.0324631-2.7516508h-2.7851639V1.0232708H110.6901398"
		/>
</g>
</svg>
