<?xml version="1.0" encoding="utf-8"?>
<!-- Generator: Adobe Illustrator 22.0.1, SVG Export Plug-In . SVG Version: 6.00 Build 0)  -->
<svg version="1.1" id="Layer_1" xmlns="http://www.w3.org/2000/svg" xmlns:xlink="http://www.w3.org/1999/xlink" x="0px" y="0px"
	 viewBox="0 0 205 70" style="enable-background:new 0 0 205 70;" xml:space="preserve">
<style type="text/css">
	.st0{fill:#01519F;}
	.st1{fill:#2A1000;}
</style>
<g>
	<g>
		<g>
			<path d="M74.1857147,1.0236117v7.281342h-0.9667664c-0.0972366-1.1272945-0.2265244-2.5452271-1.2249374-4.2209201
				c-1.1597595-1.9655929-2.7389603-2.0624173-4.2854462-2.126539h-1.8045731l-0.0312347,2.899904v14.8542233l0.0312347,3.285799
				h3.4807587v0.773447H58.8167114v-0.773447h3.4787903l0.032795-3.285799V4.8573985l-0.032795-2.899904h-1.4823723
				c-1.8686867,0.0316557-3.2858009,0.0316557-4.6392899,2.1905692c-1.0632668,1.7077494-1.1596794,3.0608315-1.2245293,4.1568899
				h-0.9339752v-7.281342H74.1857147z"/>
			<path d="M83.336235,1.0236117l11.1480103,16.2068138V4.761385l-0.0312347-2.9651456h-3.3514709V1.0236117h7.1849289v0.7726276
				h-2.771019L95.4826584,4.761385v19.3008575l-0.5156021,0.1609364L80.0167465,2.4735181v17.4638901l0.0328751,3.0600128h3.448288
				v0.773447h-7.4442444v-0.773447h2.9654846l0.0304947-3.0600128V4.761385l-0.0304947-2.9651456h-2.9654846V1.0236117H83.336235z"
				/>
			<path d="M110.797226,1.0236117v0.7726276h-3.1913528l-0.0304108,2.7385478v12.3089972
				c0.0304108,3.1897106,0.0969009,6.2193069,6.0895996,6.2193069c6.0568161,0,6.4435425-2.6428719,6.5396271-5.5099735V4.5347872
				l-0.0312347-2.7385478h-3.253006V1.0236117h7.118515v0.7726276h-2.8014297l-0.0320511,2.7385478v11.7292795
				c-0.0336151,4.2210026-0.0656738,7.8294029-8.4106903,7.8294029c-1.190506,0-4.0280075-0.1280518-5.8310242-0.8702621
				c-2.867836-1.2242012-2.9319458-3.7373714-2.9647446-6.8301773V4.5347872l-0.0327911-2.7385478h-2.771019V1.0236117H110.797226z"
				/>
			<g>
				<path class="st0" d="M18.1700573,1H6.7217398C3.5617063,1,1,3.5616243,1,6.72051v11.4506931
					c0,3.1584759,2.5617063,5.7197628,5.7217398,5.7197628h11.4483175c3.1597042,0,5.720953-2.5612869,5.720953-5.7197628V6.72051
					C23.8910103,3.5616243,21.3297615,1,18.1700573,1z M18.1700573,18.1712036H6.7217398V6.72051h11.4483175V18.1712036z"/>
				<path class="st0" d="M12.4074879,7.71171c-2.5936804,0-4.6952863,2.1032362-4.6952863,4.6956959
					c0,2.5940905,2.1016059,4.6949577,4.6952863,4.6949577c2.5928612,0,4.6953697-2.1008673,4.6953697-4.6949577
					C17.1028576,9.8149462,15.000349,7.71171,12.4074879,7.71171z"/>
			</g>
			<path d="M37.0022202,1.0236117l11.1480637,16.2068138V4.761385l-0.0320549-2.9651456h-3.3502388V1.0236117h7.1849289v0.7726276
				h-2.7714272L49.149437,4.761385v19.3008575l-0.5156059,0.1609364L33.6835899,2.4735181v17.4638901l0.03162,3.0600128h3.4467354
				v0.773447h-7.4415035v-0.773447h2.9635525l0.0320206-3.0600128V4.761385l-0.0320206-2.9651456h-2.9635525V1.0236117H37.0022202z"
				/>
		</g>
	</g>
	<g>
		<path class="st1" d="M31.5255642,36.0719833h-1.3574219v-0.3691406h3.3789082l5.2231445,7.5097656h0.0297852v-7.140625h-1.59375
			v-0.3691406h3.3935547v0.3691406H39.242363V46.356163l-0.2802734,0.0732422l-6.9643574-10.0185547H31.967947v9.4726562h1.6230488
			v0.3691406h-3.4228535v-0.3691406h1.3574219V36.0719833z"/>
		<path class="st1" d="M45.219902,38.8454208c2.6264648,0,3.4379883,2.3017578,3.4379883,3.7919922
			s-0.8115234,3.7919922-3.4379883,3.7919922s-3.4379883-2.3017578-3.4379883-3.7919922S42.5934372,38.8454208,45.219902,38.8454208
			z M45.219902,46.0612411c1.7412109,0,1.7558594-1.8740234,1.7558594-3.4238281
			c0-1.5488281-0.0146484-3.4228516-1.7558594-3.4228516s-1.7558594,1.8740234-1.7558594,3.4228516
			C43.4640427,44.1872177,43.4786911,46.0612411,45.219902,46.0612411z"/>
		<path class="st1" d="M50.9757614,39.3913193h-1.269043v-0.3691406h2.7739258v1.6972656h0.0292969
			c0.3100586-0.8554688,0.9443359-1.8740234,2.065918-1.8740234c0.8706055,0,1.3427734,0.5605469,1.3427734,1.4169922
			c0,0.5898438-0.2363281,0.9882812-0.7675781,0.9882812c-0.3979492,0-0.7373047-0.2949219-0.7373047-0.7529297
			c0-0.2060547,0.0737305-0.5605469,0.0737305-0.7519531c0-0.2070312-0.1479492-0.3691406-0.3691406-0.3691406
			c-0.7670898,0-1.6376953,1.6816406-1.6376953,3.2753906v3.2314453h1.2246094v0.3691406h-3.9985352v-0.3691406h1.269043V39.3913193
			z"/>
		<path class="st1" d="M55.8746872,39.0221786h4.0429688v0.3691406h-1.2392578l1.6376953,4.7958984h0.0292969l1.5791016-4.7958984
			h-1.2397461v-0.3691406h4.1611328v0.3691406h-1.2392578l1.5048828,4.7070312h0.0292969l1.6674805-4.7070312h-1.2392578v-0.3691406
			h2.8623047v0.3691406h-1.1508789l-2.5229492,6.9794922h-0.3837891l-2.1689453-6.3740234h-0.0297852l-2.1538086,6.3447266
			h-0.3984375l-2.597168-6.9501953h-1.1508789V39.0221786z"/>
		<path class="st1" d="M70.7794724,42.1803818v0.1181641c0,2.0654297,0.2802734,3.6738281,2.1835938,3.6738281
			c1.3427734,0,2.0214844-0.8261719,2.4052734-1.8886719l0.324707,0.1181641
			c-0.6347656,1.7109375-1.6381836,2.2275391-3.2612305,2.2275391c-2.2133789,0-3.3344727-1.7109375-3.3344727-3.7919922
			c0-1.9921875,1.2836914-3.7919922,3.4379883-3.7919922c1.8886719,0,3.1723633,1.3574219,3.1723633,3.3349609H70.7794724z
			 M73.9371872,41.722374c0-1.0615234-0.059082-2.5078125-1.5644531-2.5078125c-1.2685547,0-1.5932617,1.59375-1.5932617,2.5078125
			H73.9371872z"/>
		<path class="st1" d="M82.5695114,39.4508896c0.2509766-0.3398438,0.5751953-0.6054688,1.0917969-0.6054688
			c0.4428711,0,0.8852539,0.2949219,0.8852539,0.8554688c0,0.3691406-0.1474609,0.6494141-0.4868164,0.6494141
			c-0.7822266,0-0.2802734-0.9736328-0.796875-0.9736328c-0.1767578,0-0.4130859,0.265625-0.4423828,0.4423828
			c0.2504883,0.4130859,0.3686523,0.796875,0.3686523,1.2841797c0,1.4462891-1.1064453,2.3603516-2.5083008,2.3603516
			c-0.6049805,0-1.2099609-0.1621094-1.7114258-0.4570312c-0.4282227,0.0292969-1.0478516,0.4277344-1.0478516,0.9296875
			c0,0.5458984,0.4575195,0.6494141,1.2836914,0.6494141c0.855957,0,1.6967773-0.0595703,2.5673828-0.0595703
			c1.534668,0,2.5527344,0.5908203,2.5527344,2.3164062c0,2.0361328-1.8295898,2.65625-3.5263672,2.65625
			c-1.269043,0-3.453125-0.3242188-3.453125-2.0654297c0-0.8564453,0.7231445-1.2841797,1.4316406-1.4169922v0.0146484v-0.0292969
			c-0.9003906-0.2060547-1.4755859-0.8554688-1.4755859-1.6962891c0-0.8710938,0.6049805-1.4023438,1.3276367-1.6679688
			c-0.3979492-0.53125-0.5161133-0.9150391-0.5161133-1.5634766c0-1.3876953,1.1655197-2.2285156,2.4199219-2.2285156
			C81.3151169,38.8454208,82.0529099,38.9928818,82.5695114,39.4508896z M78.4083786,47.5065536
			c0,1.1953125,1.0625,1.5351562,2.5673828,1.5351562c1.3574219,0,2.8183594-0.53125,2.8183594-1.6679688
			c0-1.1650391-0.737793-1.3427734-2.2133789-1.3427734C79.5153122,46.0309677,78.4083786,46.1344833,78.4083786,47.5065536z
			 M80.6364059,43.0954208c1.0478516,0,1.1362305-1.1074219,1.1362305-1.8886719
			c0-0.8417969-0.0146484-1.9921875-1.0771484-1.9921875c-1.0771484,0-1.1655273,0.8847656-1.1655273,1.7998047
			C79.5299606,41.7965927,79.5739059,43.0954208,80.6364059,43.0954208z"/>
		<path class="st1" d="M86.5543747,39.3913193H85.28582v-0.3691406h2.7739258v6.8613281h1.269043v0.3691406H85.28582v-0.3691406
			h1.2685547V39.3913193z M87.3073044,35.8356552c0.472168,0,0.8852539,0.3984375,0.8852539,0.8847656
			c0,0.4726562-0.4130859,0.8857422-0.8852539,0.8857422s-0.8857422-0.4130859-0.8857422-0.8857422
			C86.4215622,36.2340927,86.8351364,35.8356552,87.3073044,35.8356552z"/>
		<path class="st1" d="M93.1949997,41.987999c0.6049805-0.1474609,1.0620117-0.2802734,1.6230469-0.4716797v-0.6201172
			c0-1.0175781-0.1772461-1.6816406-1.1508789-1.6816406c-0.737793,0-1.2397461,0.2207031-1.2397461,1.1953125
			c0,0.5751953-0.2211914,0.7666016-0.737793,0.7666016c-0.3833008,0-0.6787109-0.1025391-0.6787109-0.5458984
			c0-1.4160156,1.4316406-1.7851562,2.6118164-1.7851562c2.2578125,0,2.7001953,0.9296875,2.7001953,2.1542969v3.7480469
			c0,1.1210938,0.3393555,1.1357422,1.1655273,1.1357422v0.3691406H96.367363c-0.8266602,0-1.4018555-0.0742188-1.6381836-0.9589844
			c-0.5752029,0.8847656-1.2983398,1.1357422-2.2719727,1.1357422c-1.534668,0-2.0214844-0.796875-2.0214844-2.1396484
			c0-1.2246094,0.6342773-1.7998047,1.8740234-2.0947266L93.1949997,41.987999z M93.2833786,42.3864365
			c-0.8852539,0.265625-1.1655273,0.5908203-1.1655273,1.8886719c0,0.9003906,0.1621094,1.6972656,0.9589844,1.6972656
			c1.2836914,0,1.7412109-1.6230469,1.7412109-2.6269531v-1.4160156L93.2833786,42.3864365z"/>
		<path class="st1" d="M99.363945,45.8835068v-6.4921875h-1.269043v-0.3691406h2.7739258v1.3876953h0.0292969
			c0.4575195-1.0039062,1.3427734-1.5644531,2.5527344-1.5644531c1.4462891,0,2.1689453,0.6054688,2.1689453,2.0810547v4.9570312
			h1.1660156v0.3691406h-3.8364258v-0.3691406h1.1655273v-4.8837891c0-0.8115234-0.1474609-1.6230469-1.1806641-1.6230469
			c-1.3720703,0-2.0654297,1.2988281-2.0654297,2.6708984v3.8359375h1.1655273v0.3691406H98.094902v-0.3691406H99.363945z"/>
		<path class="st1" d="M112.9845505,36.0719833h-1.3574219v-0.3691406h4.5v0.3691406h-1.4604492v7.0078125
			c0,1.9042969,0.4130859,2.8037109,2.8032227,2.8037109c2.7890625,0,3.0693359-1.1503906,3.0693359-2.9208984v-6.890625h-1.59375
			v-0.3691406h3.2758789v0.3691406h-1.2397461v7.0527344c0,2.0214844-0.5014648,3.2167969-3.96875,3.2167969
			c-3.5561523,0-4.0283203-1.0917969-4.0283203-3.0693359V36.0719833z"/>
		<path class="st1" d="M124.2448044,45.8835068v-6.4921875h-1.269043v-0.3691406h2.7739258v1.3876953h0.0292892
			c0.4575272-1.0039062,1.3427811-1.5644531,2.5527344-1.5644531c1.4462891,0,2.1689453,0.6054688,2.1689453,2.0810547v4.9570312
			h1.1660156v0.3691406h-3.8364182v-0.3691406h1.1655197v-4.8837891c0-0.8115234-0.1474609-1.6230469-1.1806564-1.6230469
			c-1.3720703,0-2.0654297,1.2988281-2.0654297,2.6708984v3.8359375h1.1655273v0.3691406h-3.9394531v-0.3691406H124.2448044z"/>
		<path class="st1" d="M133.6002655,39.3913193h-1.2685547v-0.3691406h2.7739258v6.8613281h1.269043v0.3691406h-4.0429688
			v-0.3691406h1.2685547V39.3913193z M134.3531952,35.8356552c0.472168,0,0.8852539,0.3984375,0.8852539,0.8847656
			c0,0.4726562-0.4130859,0.8857422-0.8852539,0.8857422s-0.8857422-0.4130859-0.8857422-0.8857422
			C133.467453,36.2340927,133.8810272,35.8356552,134.3531952,35.8356552z"/>
		<path class="st1" d="M136.5963593,39.0221786h4.1606445v0.3691406h-1.3427734l1.8149414,4.9287109l1.9038086-4.9287109h-1.4316406
			v-0.3691406h2.9956055v0.3691406h-1.0625l-2.7592773,6.9501953h-0.4130859l-2.7446289-6.9501953h-1.1210938V39.0221786z"/>
		<path class="st1" d="M147.0885468,42.1803818v0.1181641c0,2.0654297,0.2802734,3.6738281,2.1835938,3.6738281
			c1.3427734,0,2.0214844-0.8261719,2.4052734-1.8886719l0.324707,0.1181641
			c-0.6347656,1.7109375-1.6381836,2.2275391-3.2612305,2.2275391c-2.2133789,0-3.3344727-1.7109375-3.3344727-3.7919922
			c0-1.9921875,1.2836914-3.7919922,3.4379883-3.7919922c1.8886719,0,3.1723633,1.3574219,3.1723633,3.3349609H147.0885468z
			 M150.2462616,41.722374c0-1.0615234-0.059082-2.5078125-1.5644531-2.5078125c-1.2685547,0-1.5932617,1.59375-1.5932617,2.5078125
			H150.2462616z"/>
		<path class="st1" d="M154.3346405,39.3913193h-1.269043v-0.3691406h2.7739258v1.6972656h0.0292969
			c0.3100586-0.8554688,0.9443359-1.8740234,2.065918-1.8740234c0.8706055,0,1.3427734,0.5605469,1.3427734,1.4169922
			c0,0.5898438-0.2363281,0.9882812-0.7675781,0.9882812c-0.3979492,0-0.737793-0.2949219-0.737793-0.7529297
			c0-0.2060547,0.0742188-0.5605469,0.0742188-0.7519531c0-0.2070312-0.1479492-0.3691406-0.3691406-0.3691406
			c-0.7670898,0-1.6376953,1.6816406-1.6376953,3.2753906v3.2314453h1.2246094v0.3691406h-3.9985352v-0.3691406h1.269043V39.3913193
			z"/>
		<path class="st1" d="M164.9440155,41.2213974h-0.3544922c-0.1767578-1.0039062-0.5605469-1.9189453-1.8588867-1.9189453
			c-0.6640625,0-1.2246094,0.3105469-1.2246094,1.0185547c0,1.8300781,4.0429688,0.8408203,4.0429688,3.8662109
			c0,1.5048828-1.4755859,2.2421875-2.7890625,2.2421875c-0.8706055,0-1.6967773-0.1621094-2.5229492-0.4570312v-2.4052734
			h0.4423828c0.0151367,1.3720703,0.6640625,2.4941406,2.1103516,2.4941406c0.7524414,0,1.6083984-0.4433594,1.6083984-1.2988281
			c0-1.9179688-3.9545898-1.1806641-3.9545898-3.71875c0-1.4306641,1.0917969-2.1982422,2.3608398-2.1982422
			c0.7822266,0,1.4609375,0.2363281,2.1396484,0.4570312V41.2213974z"/>
		<path class="st1" d="M167.7775116,39.3913193h-1.2685547v-0.3691406h2.7739258v6.8613281h1.269043v0.3691406h-4.0429688
			v-0.3691406h1.2685547V39.3913193z M168.5304413,35.8356552c0.472168,0,0.8852539,0.3984375,0.8852539,0.8847656
			c0,0.4726562-0.4130859,0.8857422-0.8852539,0.8857422s-0.8857422-0.4130859-0.8857422-0.8857422
			C167.6446991,36.2340927,168.0582733,35.8356552,168.5304413,35.8356552z"/>
		<path class="st1" d="M171.142746,39.0221786h1.0180664v-1.9619141h1.5053711v1.9619141h1.6376953v0.3691406h-1.6376953v5.1347656
			c0,0.8710938,0.1767578,1.2841797,0.7817383,1.2841797c0.5605469,0,0.796875-0.4130859,1.0327148-0.8857422l0.3393555,0.1474609
			l-0.1323242,0.265625c-0.2954102,0.53125-0.796875,1.0039062-1.859375,1.0039062
			c-1.534668,0-1.6674805-0.8710938-1.6674805-1.8154297v-5.1347656h-1.0180664V39.0221786z"/>
		<path class="st1" d="M175.717453,39.0221786h3.9545898v0.3691406h-1.2397461l1.9477539,4.7958984h0.0297852l1.4755859-4.7958984
			h-1.2397461v-0.3691406h2.8476562v0.3691406h-1.1508789l-2.3017578,7.4511719
			c-0.5458984,1.7861328-1.1064453,2.65625-2.3901367,2.65625c-0.8852539,0-1.3725586-0.6044922-1.3725586-1.2392578
			c0-0.5166016,0.2363281-0.8261719,0.6787109-0.8261719c0.5463867,0,0.6494141,0.3837891,0.6494141,0.7666016
			c0,0.3837891,0.059082,0.7675781,0.5019531,0.7675781c0.4423828,0,0.9589844-0.3984375,1.3574219-1.8144531l0.265625-0.8857422
			l-2.9511719-6.8759766h-1.0625V39.0221786z"/>
		<path class="st1" d="M191.7726288,38.8454208c2.6264648,0,3.4379883,2.3017578,3.4379883,3.7919922
			s-0.8115234,3.7919922-3.4379883,3.7919922s-3.4379883-2.3017578-3.4379883-3.7919922
			S189.1461639,38.8454208,191.7726288,38.8454208z M191.7726288,46.0612411c1.7412109,0,1.7558594-1.8740234,1.7558594-3.4238281
			c0-1.5488281-0.0146484-3.4228516-1.7558594-3.4228516s-1.7558594,1.8740234-1.7558594,3.4228516
			C190.0167694,44.1872177,190.0314178,46.0612411,191.7726288,46.0612411z"/>
		<path class="st1" d="M196.2887421,39.3913193v-0.3691406h1.2397461v-1.4755859
			c0-1.6074219,1.2246094-2.0214844,2.3310547-2.0214844c0.8852539,0,2.1987305,0.28125,2.1987305,1.4316406
			c0,0.3984375-0.2509766,0.6201172-0.6347656,0.6201172c-0.4868164,0-0.6933594-0.2216797-0.6933594-0.6933594
			c0-0.6347656-0.206543-0.9892578-0.7822266-0.9892578c-0.7963867,0-0.9145508,0.5908203-0.9145508,1.4755859v1.6523438h1.4165039
			v0.3691406h-1.4165039v6.4921875h1.1953125v0.3691406h-3.9399414v-0.3691406h1.2397461v-6.4921875H196.2887421z"/>
		<path class="st1" d="M30.4777126,60.8219833h0.4130859c0.1035156,1.6972656,1.3427753,3.1875,3.0546894,3.1875
			c1.2246094,0,2.4345703-0.6347656,2.4345703-2.0507812c0-2.8476562-5.7250996-1.8300781-5.7250996-5.4746094
			c0-1.8740234,1.5937519-2.921875,3.3344746-2.921875c0.8706055,0,1.9331055,0.265625,2.7299805,0.6347656l0.0883789,2.3164062
			h-0.3984375c-0.3540039-1.6816406-1.2099609-2.4931641-2.5820312-2.4931641c-1.0327148,0-2.0214863,0.5605469-2.0214863,1.7265625
			c0,2.640625,5.6367207,1.5488281,5.6367207,5.5185547c0,2.0214844-1.859375,3.2011719-3.6889648,3.2011719
			c-1.0917969,0-2.0659199-0.1621094-3.1723652-0.6640625L30.4777126,60.8219833z"/>
		<path class="st1" d="M45.4406052,62.0026474c-0.6933594,1.9472656-1.8735352,2.4638672-3.2163086,2.4638672
			c-2.1542969,0-3.4379883-1.7998047-3.4379883-3.7919922c0-2.0947266,1.4755859-3.7919922,3.5410156-3.7919922
			c1.3725586,0,2.9067383,0.8115234,2.9067383,2.0810547c0,0.5898438-0.3393555,0.8115234-0.7817383,0.8115234
			c-0.53125,0-0.7231445-0.3691406-0.7231445-0.7675781c0-0.2070312,0.0297852-0.3398438,0.0297852-0.4726562
			c0-0.8115234-0.5019531-1.2832031-1.4165039-1.2832031c-1.4609375,0-1.8740234,1.4902344-1.8740234,3.4228516
			c0,1.1660156,0.1181641,3.3349609,2.1835938,3.3349609c1.3427734,0,2.0214844-0.8261719,2.4643555-2.125L45.4406052,62.0026474z"
			/>
		<path class="st1" d="M47.2272263,57.4284286h-1.2685547V57.059288h2.7739258v6.8613281h1.269043v0.3691406h-4.0429688v-0.3691406
			h1.2685547V57.4284286z M47.9801559,53.8727646c0.472168,0,0.8852539,0.3984375,0.8852539,0.8847656
			c0,0.4726562-0.4130859,0.8857422-0.8852539,0.8857422s-0.8857422-0.4130859-0.8857422-0.8857422
			C47.0944138,54.2712021,47.507988,53.8727646,47.9801559,53.8727646z"/>
		<path class="st1" d="M52.7907028,60.2174911v0.1181641c0,2.0654297,0.2802734,3.6738281,2.1835938,3.6738281
			c1.3427734,0,2.0214844-0.8261719,2.4052734-1.8886719l0.324707,0.1181641
			c-0.6347656,1.7109375-1.6381836,2.2275391-3.2612305,2.2275391c-2.2133789,0-3.3344727-1.7109375-3.3344727-3.7919922
			c0-1.9921875,1.2836914-3.7919922,3.4379883-3.7919922c1.8886719,0,3.1723633,1.3574219,3.1723633,3.3349609H52.7907028z
			 M55.9484177,59.7594833c0-1.0615234-0.059082-2.5078125-1.5644531-2.5078125c-1.2685547,0-1.5932617,1.59375-1.5932617,2.5078125
			H55.9484177z"/>
		<path class="st1" d="M60.0367966,63.9206161v-6.4921875h-1.269043V57.059288h2.7739258v1.3876953h0.0292969
			c0.4575195-1.0039062,1.3427734-1.5644531,2.5527344-1.5644531c1.4462891,0,2.1689453,0.6054688,2.1689453,2.0810547v4.9570312
			h1.1660156v0.3691406h-3.8364258v-0.3691406h1.1655273v-4.8837891c0-0.8115234-0.1474609-1.6230469-1.1806641-1.6230469
			c-1.3720703,0-2.0654297,1.2988281-2.0654297,2.6708984v3.8359375h1.1655273v0.3691406h-3.9394531v-0.3691406H60.0367966z"/>
		<path class="st1" d="M75.2648239,62.0026474c-0.6933594,1.9472656-1.8735352,2.4638672-3.2163086,2.4638672
			c-2.1542969,0-3.4379883-1.7998047-3.4379883-3.7919922c0-2.0947266,1.4755859-3.7919922,3.5410156-3.7919922
			c1.3725586,0,2.9067383,0.8115234,2.9067383,2.0810547c0,0.5898438-0.3393555,0.8115234-0.7817383,0.8115234
			c-0.53125,0-0.7231445-0.3691406-0.7231445-0.7675781c0-0.2070312,0.0297852-0.3398438,0.0297852-0.4726562
			c0-0.8115234-0.5019531-1.2832031-1.4165039-1.2832031c-1.4609375,0-1.8740234,1.4902344-1.8740234,3.4228516
			c0,1.1660156,0.1181641,3.3349609,2.1835938,3.3349609c1.3427734,0,2.0214844-0.8261719,2.4643555-2.125L75.2648239,62.0026474z"
			/>
		<path class="st1" d="M77.9518356,60.2174911v0.1181641c0,2.0654297,0.2802734,3.6738281,2.1835938,3.6738281
			c1.3427734,0,2.0214844-0.8261719,2.4052734-1.8886719l0.324707,0.1181641
			c-0.6347656,1.7109375-1.6381836,2.2275391-3.2612305,2.2275391c-2.2133789,0-3.3344727-1.7109375-3.3344727-3.7919922
			c0-1.9921875,1.2836914-3.7919922,3.4379883-3.7919922c1.8886719,0,3.1723633,1.3574219,3.1723633,3.3349609H77.9518356z
			 M81.1095505,59.7594833c0-1.0615234-0.059082-2.5078125-1.5644531-2.5078125c-1.2685547,0-1.5932617,1.59375-1.5932617,2.5078125
			H81.1095505z"/>
		<path class="st1" d="M91.336113,60.0251083c0.6049805-0.1474609,1.0620117-0.2802734,1.6230469-0.4716797v-0.6201172
			c0-1.0175781-0.1772461-1.6816406-1.1508789-1.6816406c-0.737793,0-1.2397461,0.2207031-1.2397461,1.1953125
			c0,0.5751953-0.2211914,0.7666016-0.737793,0.7666016c-0.3833008,0-0.6787109-0.1025391-0.6787109-0.5458984
			c0-1.4160156,1.4316406-1.7851562,2.6118164-1.7851562c2.2578125,0,2.7001953,0.9296875,2.7001953,2.1542969v3.7480469
			c0,1.1210938,0.3393555,1.1357422,1.1655273,1.1357422v0.3691406h-1.1210938
			c-0.8261719,0-1.4018555-0.0742188-1.6381836-0.9589844c-0.5751953,0.8847656-1.2983398,1.1357422-2.2719727,1.1357422
			c-1.534668,0-2.0214844-0.796875-2.0214844-2.1396484c0-1.2246094,0.6342773-1.7998047,1.8740234-2.0947266L91.336113,60.0251083z
			 M91.4244919,60.4235458c-0.8852539,0.265625-1.1655273,0.5908203-1.1655273,1.8886719
			c0,0.9003906,0.1621094,1.6972656,0.9589844,1.6972656c1.2836914,0,1.7412109-1.6230469,1.7412109-2.6269531v-1.4160156
			L91.4244919,60.4235458z"/>
		<path class="st1" d="M97.5050583,63.9206161v-6.4921875h-1.269043V57.059288h2.7739258v1.3876953h0.0292969
			c0.4575195-1.0039062,1.3427734-1.5644531,2.5527344-1.5644531c1.4462891,0,2.1689453,0.6054688,2.1689453,2.0810547v4.9570312
			h1.1660156v0.3691406h-3.8364258v-0.3691406h1.1655273v-4.8837891c0-0.8115234-0.1474609-1.6230469-1.1806641-1.6230469
			c-1.3720703,0-2.0654297,1.2988281-2.0654297,2.6708984v3.8359375h1.1655273v0.3691406h-3.9394531v-0.3691406H97.5050583z"/>
		<path class="st1" d="M111.0367966,63.2419052h-0.0292969c-0.324707,0.7675781-1.121582,1.2246094-2.0361328,1.2246094
			c-2.0361328,0-2.8920898-1.7851562-2.8920898-3.7919922c0-2.7148438,1.2246094-3.7919922,2.7885742-3.7919922
			c0.9741211,0,1.6967773,0.3242188,2.1396484,1.2539062h0.0292969v-4.0273438h-1.4755859v-0.3691406h2.980957v10.1806641h1.2099609
			v0.3691406h-2.715332V63.2419052z M111.0812302,59.981163c0-2.1835938-1.0771484-2.6416016-1.7412109-2.6416016
			c-1.3867188,0-1.6674805,1.4462891-1.6674805,3.3349609c0,2.1103516,0.472168,3.3349609,1.6674805,3.3349609
			c1.4902344,0,1.7412109-1.5341797,1.7412109-2.8183594V59.981163z"/>
		<path class="st1" d="M122.4884567,54.1969833h-1.269043c-1.5200195,0-2.0805664,1.5498047-2.1396484,2.921875h-0.4428711
			v-3.3789062h9.384758v3.3789062h-0.4428635c-0.059082-1.3720703-0.6342773-2.921875-2.1396484-2.921875h-1.269043v9.7236328
			h1.6235352v0.3691406h-4.9287109v-0.3691406h1.6235352V54.1969833z"/>
		<path class="st1" d="M129.6490936,60.2174911v0.1181641c0,2.0654297,0.2802734,3.6738281,2.1835938,3.6738281
			c1.3427734,0,2.0214844-0.8261719,2.4052734-1.8886719l0.324707,0.1181641
			c-0.6347656,1.7109375-1.6381836,2.2275391-3.2612305,2.2275391c-2.2133789,0-3.334465-1.7109375-3.334465-3.7919922
			c0-1.9921875,1.2836838-3.7919922,3.4379807-3.7919922c1.8886719,0,3.1723633,1.3574219,3.1723633,3.3349609H129.6490936z
			 M132.8068085,59.7594833c0-1.0615234-0.059082-2.5078125-1.5644531-2.5078125
			c-1.2685547,0-1.5932617,1.59375-1.5932617,2.5078125H132.8068085z"/>
		<path class="st1" d="M142.8263397,62.0026474c-0.6933594,1.9472656-1.8735352,2.4638672-3.2163086,2.4638672
			c-2.1542969,0-3.4379883-1.7998047-3.4379883-3.7919922c0-2.0947266,1.4755859-3.7919922,3.5410156-3.7919922
			c1.3725586,0,2.9067383,0.8115234,2.9067383,2.0810547c0,0.5898438-0.3393555,0.8115234-0.7817383,0.8115234
			c-0.53125,0-0.7231445-0.3691406-0.7231445-0.7675781c0-0.2070312,0.0297852-0.3398438,0.0297852-0.4726562
			c0-0.8115234-0.5019531-1.2832031-1.4165039-1.2832031c-1.4609375,0-1.8740234,1.4902344-1.8740234,3.4228516
			c0,1.1660156,0.1181641,3.3349609,2.1835938,3.3349609c1.3427734,0,2.0214844-0.8261719,2.4643555-2.125L142.8263397,62.0026474z"
			/>
		<path class="st1" d="M144.5538788,63.9206161v-9.8115234h-1.269043v-0.3691406h2.7739258v4.7070312h0.0292969
			c0.4575195-1.0039062,1.3427734-1.5644531,2.5527344-1.5644531c1.4462891,0,2.1689453,0.6054688,2.1689453,2.0810547v4.9570312
			h1.1660156v0.3691406h-3.8364258v-0.3691406h1.1655273v-4.8837891c0-0.8115234-0.1474609-1.6230469-1.1806641-1.6230469
			c-1.3720703,0-2.0654297,1.2988281-2.0654297,2.6708984v3.8359375h1.1655273v0.3691406h-3.9394531v-0.3691406H144.5538788z"/>
		<path class="st1" d="M153.8507538,63.9206161v-6.4921875h-1.269043V57.059288h2.7739258v1.3876953h0.0292969
			c0.4575195-1.0039062,1.3427734-1.5644531,2.5527344-1.5644531c1.4462891,0,2.1689453,0.6054688,2.1689453,2.0810547v4.9570312
			h1.1660156v0.3691406h-3.8364258v-0.3691406h1.1655273v-4.8837891c0-0.8115234-0.1474609-1.6230469-1.1806641-1.6230469
			c-1.3720703,0-2.0654297,1.2988281-2.0654297,2.6708984v3.8359375h1.1655273v0.3691406h-3.9394531v-0.3691406H153.8507538z"/>
		<path class="st1" d="M165.8629608,56.8825302c2.6264648,0,3.4379883,2.3017578,3.4379883,3.7919922
			s-0.8115234,3.7919922-3.4379883,3.7919922s-3.4379883-2.3017578-3.4379883-3.7919922
			S163.236496,56.8825302,165.8629608,56.8825302z M165.8629608,64.0983505c1.7412109,0,1.7558594-1.8740234,1.7558594-3.4238281
			c0-1.5488281-0.0146484-3.4228516-1.7558594-3.4228516s-1.7558594,1.8740234-1.7558594,3.4228516
			C164.1071014,62.2243271,164.1217499,64.0983505,165.8629608,64.0983505z"/>
		<path class="st1" d="M170.408371,53.7399521h2.7739258v10.1806641h1.269043v0.3691406h-4.0429688v-0.3691406h1.2685547v-9.8115234
			h-1.2685547V53.7399521z"/>
		<path class="st1" d="M178.9967499,56.8825302c2.6264648,0,3.4379883,2.3017578,3.4379883,3.7919922
			s-0.8115234,3.7919922-3.4379883,3.7919922s-3.4379883-2.3017578-3.4379883-3.7919922
			S176.370285,56.8825302,178.9967499,56.8825302z M178.9967499,64.0983505c1.7412109,0,1.7558594-1.8740234,1.7558594-3.4238281
			c0-1.5488281-0.0146484-3.4228516-1.7558594-3.4228516s-1.7558594,1.8740234-1.7558594,3.4228516
			C177.2408905,62.2243271,177.2555389,64.0983505,178.9967499,64.0983505z"/>
		<path class="st1" d="M189.2965546,57.487999c0.2509766-0.3398438,0.5751953-0.6054688,1.0917969-0.6054688
			c0.4428711,0,0.8852539,0.2949219,0.8852539,0.8554688c0,0.3691406-0.1474609,0.6494141-0.4868164,0.6494141
			c-0.7822266,0-0.2802734-0.9736328-0.796875-0.9736328c-0.1767578,0-0.4130859,0.265625-0.4423828,0.4423828
			c0.2504883,0.4130859,0.3686523,0.796875,0.3686523,1.2841797c0,1.4462891-1.1064453,2.3603516-2.5083008,2.3603516
			c-0.6049805,0-1.2099609-0.1621094-1.7114258-0.4570312c-0.4282227,0.0292969-1.0478516,0.4277344-1.0478516,0.9296875
			c0,0.5458984,0.4575195,0.6494141,1.2836914,0.6494141c0.855957,0,1.6967773-0.0595703,2.5673828-0.0595703
			c1.534668,0,2.5527344,0.5908203,2.5527344,2.3164062c0,2.0361328-1.8295898,2.65625-3.5263672,2.65625
			c-1.269043,0-3.453125-0.3242188-3.453125-2.0654297c0-0.8564453,0.7231445-1.2841797,1.4316406-1.4169922v0.0146484v-0.0292969
			c-0.9003906-0.2060547-1.4755859-0.8554688-1.4755859-1.6962891c0-0.8710938,0.6049805-1.4023438,1.328125-1.6679688
			c-0.3984375-0.53125-0.5166016-0.9150391-0.5166016-1.5634766c0-1.3876953,1.1655273-2.2285156,2.4199219-2.2285156
			C188.04216,56.8825302,188.779953,57.0299911,189.2965546,57.487999z M185.1354218,65.543663
			c0,1.1953125,1.0625,1.5351562,2.5673828,1.5351562c1.3574219,0,2.8183594-0.53125,2.8183594-1.6679688
			c0-1.1650391-0.737793-1.3427734-2.2133789-1.3427734C186.2423553,64.0680771,185.1354218,64.1715927,185.1354218,65.543663z
			 M187.3634491,61.1325302c1.0478516,0,1.1362305-1.1074219,1.1362305-1.8886719
			c0-0.8417969-0.0146484-1.9921875-1.0771484-1.9921875c-1.0771484,0-1.1655273,0.8847656-1.1655273,1.7998047
			C186.2570038,59.8337021,186.3014374,61.1325302,187.3634491,61.1325302z"/>
		<path class="st1" d="M191.6437225,57.059288h3.9545898v0.3691406h-1.2397461l1.9477539,4.7958984h0.0297852l1.4755859-4.7958984
			h-1.2397461V57.059288h2.8476562v0.3691406h-1.1508789l-2.3017578,7.4511719
			c-0.5458984,1.7861328-1.1064453,2.65625-2.3901367,2.65625c-0.8852539,0-1.3725586-0.6044922-1.3725586-1.2392578
			c0-0.5166016,0.2363281-0.8261719,0.6791992-0.8261719c0.5458984,0,0.6489258,0.3837891,0.6489258,0.7666016
			c0,0.3837891,0.059082,0.7675781,0.5019531,0.7675781c0.4423828,0,0.9589844-0.3984375,1.3574219-1.8144531l0.265625-0.8857422
			l-2.9511719-6.8759766h-1.0625V57.059288z"/>
	</g>
</g>
</svg>
