<?xml version="1.0" encoding="utf-8"?>
<!-- Generator: Adobe Illustrator 22.0.1, SVG Export Plug-In . SVG Version: 6.00 Build 0)  -->
<svg version="1.1" id="Layer_1" xmlns="http://www.w3.org/2000/svg" xmlns:xlink="http://www.w3.org/1999/xlink" x="0px" y="0px"
	 viewBox="0 0 322.2 187.9" style="enable-background:new 0 0 322.2 187.9;" xml:space="preserve">
<style type="text/css">
	.st0{fill:#FFFFFF;}
	.st1{fill:#3399CC;}
</style>
<path class="st0" d="M123.7,0.5C83.6,0.5,51,29.4,51,64.9c0,1.5,0.1,3.1,0.3,4.7l0.5,5.5l-5.4,1.2c-26.2,5.2-45.1,28.4-45.1,55
	c0,30.9,25.2,56.1,56.1,56.1h207.7c30.9,0,56.1-25.2,56.1-56.1s-25.2-56.1-56.1-56.1h-18.4l-0.4-5.7c-1.9-24.7-22.8-44.1-47.6-44.1
	c-3.8,0-7.7,0.5-11.6,1.5l-3.6,0.9l-2.5-2.8C166.8,9.4,146,0.5,123.7,0.5z"/>
<g>
	<path d="M48.1,110.7h12.2l14.1,44.9H63.6l-5.9-22.8c-1.2-4.5-2.4-9.8-3.6-14.5h-0.3c-1.1,4.7-2.3,10-3.5,14.5l-5.9,22.8H34
		L48.1,110.7z M43.3,137h21.6v7.9H43.3V137z"/>
	<path d="M78.7,110.7h16.2c9.5,0,17.3,3.3,17.3,14c0,10.3-7.8,14.8-17.3,14.8h-6v16.2H78.7V110.7z M94,131.4c5.3,0,8.2-2.3,8.2-6.7
		c0-4.4-2.9-5.9-8.2-5.9h-5.2v12.6H94z M93,136.8l7-6.5l14.3,25.3H103L93,136.8z"/>
	<path d="M118.8,133.4c0-14.9,9.9-23.6,21.2-23.6c5.8,0,10.5,2.7,13.5,5.8l-5.4,6.5c-2.3-2.1-4.7-3.6-7.9-3.6c-6.2,0-11,5.4-11,14.4
		c0,9.2,4.3,14.6,10.9,14.6c3.7,0,6.6-1.8,8.8-4.2l5.4,6.4c-3.7,4.3-8.7,6.6-14.5,6.6C128.3,156.5,118.8,148.6,118.8,133.4z"/>
	<path d="M160.2,145v-37.7h10.1v38.1c0,2.2,1,2.9,1.8,2.9c0.4,0,0.7,0,1.2-0.1l1.2,7.5c-1.1,0.5-2.8,0.8-5.1,0.8
		C162.6,156.5,160.2,151.9,160.2,145z"/>
	<path d="M178,138.5c0-11.4,8-17.9,16.7-17.9c8.7,0,16.7,6.6,16.7,17.9c0,11.3-8,17.9-16.7,17.9C186,156.5,178,149.9,178,138.5z
		 M200.9,138.5c0-5.9-2.1-9.8-6.3-9.8s-6.3,3.8-6.3,9.8c0,5.9,2.1,9.7,6.3,9.7S200.9,144.5,200.9,138.5z"/>
	<path d="M217.9,142.7v-21.2H228v19.9c0,4.9,1.3,6.5,4.2,6.5c2.5,0,4.1-1.1,6.1-3.8v-22.6h10.1v34.2h-8.3l-0.7-4.7h-0.3
		c-2.9,3.4-6.1,5.6-10.7,5.6C221.1,156.5,217.9,151.2,217.9,142.7z"/>
	<path d="M255.7,138.5c0-11.2,7-17.9,14.2-17.9c3.8,0,6.1,1.4,8.4,3.6l-0.4-5.2v-11.7H288v48.3h-8.3l-0.7-3.4h-0.2
		c-2.4,2.4-5.8,4.2-9.1,4.2C261.1,156.5,255.7,149.7,255.7,138.5z M277.9,145.1v-14c-1.8-1.6-3.8-2.2-5.7-2.2c-3.3,0-6.2,3-6.2,9.5
		c0,6.7,2.3,9.7,6.2,9.7C274.4,148.2,276.2,147.3,277.9,145.1z"/>
</g>
<g>
	<g>
		<path d="M132.8,49h6.6l0.6,2.7h0.2c2.1-1.9,4.9-3.3,7.8-3.3c6.6,0,10.6,5.4,10.6,13.8c0,9.3-5.6,14.7-11.5,14.7
			c-2.3,0-4.5-1-6.5-2.8l0.3,4.3v8h-8.1V49z M150.3,62.3c0-4.9-1.5-7.3-4.7-7.3c-1.7,0-3.1,0.7-4.7,2.4v11.2c1.5,1.3,3,1.7,4.3,1.7
			C148,70.3,150.3,67.9,150.3,62.3z"/>
		<path d="M162.6,62.6c0-8.8,6.3-14.3,12.8-14.3c7.8,0,11.6,5.6,11.6,13.1c0,1.5-0.2,2.9-0.3,3.6h-16.3c0.7,3.9,3.4,5.8,7.1,5.8
			c2.1,0,3.9-0.6,5.9-1.8l2.7,4.9c-2.8,1.9-6.4,3.1-9.7,3.1C168.6,76.9,162.6,71.7,162.6,62.6z M180.2,59.7c0-3-1.3-5.1-4.5-5.1
			c-2.5,0-4.7,1.7-5.3,5.1H180.2z"/>
		<path d="M192.6,49h6.6l0.6,3.4h0.2c2.3-2.2,5-4.1,8.7-4.1c5.9,0,8.4,4.2,8.4,11v16.9h-8.1V60.4c0-3.9-1.1-5.1-3.4-5.1
			c-2,0-3.3,0.9-5,2.6v18.4h-8.1V49z"/>
	</g>
</g>
<path id="path3773_7_" class="st1" d="M107.6,80.3c-0.3,0-0.5-0.2-0.6-0.4l-6.1-16c-0.1-0.3,0-0.7,0.4-0.8c0,0,0,0,0,0
	c4.4-1.7,6.5-6.6,4.8-10.9s-6.6-6.5-10.9-4.8c-4.4,1.7-6.5,6.6-4.8,10.9c0,0,0,0,0,0c0.9,2.2,2.6,4,4.9,4.9c0.3,0.1,0.5,0.5,0.4,0.8
	l-6.1,16c-0.1,0.3-0.5,0.5-0.8,0.4c0,0,0,0,0,0c-13.9-5.3-20.8-20.9-15.5-34.8C78.4,31.6,94,24.6,107.8,30c6.7,2.6,12,7.7,14.9,14.2
	c6,13.6-0.1,29.5-13.6,35.5c-0.4,0.2-0.9,0.4-1.3,0.5C107.8,80.2,107.7,80.3,107.6,80.3z"/>
</svg>
