<?xml version="1.0" encoding="utf-8"?>
<!-- Generator: Adobe Illustrator 22.0.1, SVG Export Plug-In . SVG Version: 6.00 Build 0)  -->
<svg version="1.1" id="Layer_1" xmlns="http://www.w3.org/2000/svg" xmlns:xlink="http://www.w3.org/1999/xlink" x="0px" y="0px"
	 viewBox="0 0 320 200" style="enable-background:new 0 0 320 200;" xml:space="preserve">
<style type="text/css">
	.st0{fill:#FFFFFF;}
	.st1{fill:#007799;}
</style>
<g>
	<path d="M235.6,177h-153c-27.8,0-50.5-22.6-50.5-50.5c0-22.6,15.2-42.4,36.7-48.5c0-0.1,0-0.3,0-0.4C68.9,46.4,97,21,131.6,21
		c18.1,0,35,6.9,47,19.1c2.7-0.5,5.4-0.8,8.1-0.8c21.6,0,40,15.8,43.7,36.7h5.3c27.8,0,50.5,22.6,50.5,50.5
		C286.1,154.4,263.4,177,235.6,177z"/>
	<path class="st0" d="M131.6,30.2c-29.5,0-53.5,21.3-53.5,47.4c0,1.1,0.1,2.3,0.2,3.5l0.3,4.1l-4,0.9c-19.3,3.9-33.2,20.9-33.2,40.5
		c0,22.8,18.5,41.3,41.3,41.3h153c22.8,0,41.3-18.5,41.3-41.3s-18.5-41.3-41.3-41.3H222l-0.3-4.2c-1.4-18.2-16.8-32.5-35-32.5
		c-2.8,0-5.6,0.4-8.5,1.1l-2.7,0.7l-1.8-2.1C163.3,36.7,148,30.2,131.6,30.2z"/>
	<g>
		<path d="M69.1,109.6h9.6l11.2,35.5h-8.5l-4.6-18c-1-3.6-1.9-7.8-2.9-11.5h-0.2c-0.9,3.8-1.8,7.9-2.8,11.5l-4.7,18h-8.2L69.1,109.6
			z M65.3,130.4h17.1v6.2H65.3V130.4z"/>
		<path d="M93.2,109.6H106c7.5,0,13.7,2.6,13.7,11.1c0,8.2-6.2,11.7-13.7,11.7h-4.8v12.8h-8V109.6z M105.4,126
			c4.2,0,6.5-1.8,6.5-5.3c0-3.5-2.3-4.7-6.5-4.7h-4.1v10H105.4z M104.6,130.2l5.6-5.1l11.3,20h-9L104.6,130.2z"/>
		<path d="M125,127.6c0-11.8,7.8-18.6,16.8-18.6c4.6,0,8.3,2.2,10.7,4.6l-4.2,5.2c-1.8-1.7-3.7-2.8-6.3-2.8c-4.9,0-8.7,4.3-8.7,11.4
			c0,7.3,3.4,11.5,8.6,11.5c2.9,0,5.2-1.4,6.9-3.3l4.2,5c-2.9,3.4-6.9,5.2-11.5,5.2C132.5,145.8,125,139.5,125,127.6z"/>
		<path d="M157.7,136.7v-29.8h8V137c0,1.7,0.8,2.3,1.4,2.3c0.3,0,0.5,0,1-0.1l1,5.9c-0.9,0.4-2.2,0.7-4,0.7
			C159.6,145.8,157.7,142.2,157.7,136.7z"/>
		<path d="M171.7,131.6c0-9,6.3-14.2,13.2-14.2c6.8,0,13.2,5.2,13.2,14.2c0,9-6.3,14.2-13.2,14.2
			C178.1,145.8,171.7,140.6,171.7,131.6z M189.9,131.6c0-4.7-1.6-7.7-5-7.7c-3.3,0-5,3-5,7.7s1.6,7.7,5,7.7
			C188.2,139.3,189.9,136.3,189.9,131.6z"/>
		<path d="M203.3,134.9v-16.8h8v15.8c0,3.9,1,5.1,3.4,5.1c2,0,3.2-0.8,4.8-3v-17.9h8v27h-6.5l-0.6-3.8h-0.2
			c-2.3,2.7-4.8,4.4-8.5,4.4C205.8,145.8,203.3,141.6,203.3,134.9z"/>
		<path d="M233.1,131.6c0-8.8,5.5-14.2,11.2-14.2c3,0,4.8,1.1,6.6,2.8l-0.3-4.1v-9.2h8v38.2h-6.5l-0.6-2.7h-0.2
			c-1.9,1.9-4.6,3.3-7.2,3.3C237.5,145.8,233.1,140.4,233.1,131.6z M250.7,136.8v-11.1c-1.4-1.3-3-1.7-4.5-1.7
			c-2.6,0-4.9,2.4-4.9,7.5c0,5.3,1.8,7.7,4.9,7.7C248,139.2,249.4,138.6,250.7,136.8z"/>
	</g>
	<g>
		<g>
			<path d="M138.4,64.7h5.2l0.5,2.1h0.2c1.7-1.5,3.8-2.6,6.1-2.6c5.2,0,8.3,4.3,8.3,10.8c0,7.3-4.4,11.5-9,11.5
				c-1.8,0-3.6-0.8-5.1-2.2l0.2,3.4v6.2h-6.3V64.7z M152.1,75c0-3.8-1.2-5.7-3.7-5.7c-1.3,0-2.4,0.6-3.7,1.9V80
				c1.1,1,2.3,1.3,3.4,1.3C150.4,81.3,152.1,79.5,152.1,75z"/>
			<path d="M161.8,75.3c0-6.9,4.9-11.2,10.1-11.2c6.1,0,9.1,4.4,9.1,10.2c0,1.1-0.1,2.3-0.3,2.8H168c0.6,3.1,2.7,4.5,5.5,4.5
				c1.6,0,3.1-0.5,4.6-1.4l2.1,3.8c-2.2,1.5-5,2.4-7.6,2.4C166.5,86.5,161.8,82.4,161.8,75.3z M175.6,73c0-2.3-1-4-3.5-4
				c-2,0-3.7,1.3-4.1,4H175.6z"/>
			<path d="M185.3,64.7h5.2l0.5,2.7h0.2c1.8-1.7,3.9-3.2,6.8-3.2c4.6,0,6.6,3.3,6.6,8.6V86h-6.3V73.5c0-3.1-0.8-4-2.6-4
				c-1.6,0-2.6,0.7-3.9,2.1V86h-6.3V64.7z"/>
		</g>
	</g>
	<path id="path3773_2_" class="st1" d="M119.7,88.9c-0.2,0-0.4-0.1-0.5-0.3l-4.5-11.8c-0.1-0.2,0-0.5,0.3-0.6c0,0,0,0,0,0
		c3.2-1.2,4.8-4.8,3.6-8.1c-1.2-3.2-4.8-4.8-8.1-3.6c-3.2,1.2-4.8,4.8-3.6,8.1c0,0,0,0,0,0c0.6,1.6,1.9,3,3.6,3.6
		c0.2,0.1,0.4,0.4,0.3,0.6l-4.5,11.8c-0.1,0.2-0.4,0.4-0.6,0.3c0,0,0,0,0,0C95.5,85,90.4,73.5,94.3,63.3
		c3.9-10.2,15.4-15.3,25.6-11.4c4.9,1.9,8.9,5.6,11,10.4c4.5,10,0,21.7-10,26.2c-0.3,0.1-0.6,0.3-1,0.4
		C119.8,88.9,119.8,88.9,119.7,88.9z"/>
</g>
</svg>
